PathFileType	4	(X/Y/Z)	9_coords_data.trc
DataRate	CameraRate	NumFrames	NumMarkers	Units	OrigDataRate	OrigDataStartFrame	OrigNumFrames
30.0	30.0	6	21	m	30.0	1	50
Frame#	Time	THUMB_TIP	THUMB_IP	THUMB_MCP	THUMB_CMC	INDEX_TIP	INDEX_DIP	INDEX_PIP	INDEX_MCP	MIDDLE_TIP	MIDDLE_DIP	MIDDLE_PIP	MIDDLE_MCP	RING_TIP	RING_DIP	RING_PIP	RING_MCP	PINKY_TIP	PINKY_DIP	PINKY_PIP	PINKY_MCP	WRIST
X1	Y1	Z1	X2	Y2	Z2	X3	Y3	Z3	X4	Y4	Z4	X5	Y5	Z5	X6	Y6	Z6	X7	Y7	Z7	X8	Y8	Z8	X9	Y9	Z9	X10	Y10	Z10	X11	Y11	Z11	X12	Y12	Z12	X13	Y13	Z13	X14	Y14	Z14	X15	Y15	Z15	X16	Y16	Z16	X17	Y17	Z17	X18	Y18	Z18	X19	Y19	Z19	X20	Y20	Z20	X21	Y21	Z21
0	0.0	-0.009744020462036132	-0.06334859848022462	1.0184199829101563	-0.01724760055541992	-0.04665280151367188	1.03672998046875	-0.029389299392700196	-0.04039550018310547	1.0646300048828126	-0.042884201049804685	-0.01681649971008301	1.0971700439453125	-0.005486239910125732	-0.005366399765014649	1.0623199462890625	-0.00553193998336792	-0.00484184980392456	1.0421300048828126	-0.013925299644470215	-0.008791370391845703	1.0204199829101563	-0.047956600189208984	-0.023645200729370118	1.0313299560546876	-0.021999399185180665	-0.000813539981842041	1.0789100341796876	-0.015465399742126466	0.008120229721069336	1.061969970703125	-0.0176653995513916	0.012197199821472169	1.0311300048828125	-0.05795819854736328	-0.002733839988708496	1.031699951171875	-0.03176569938659668	0.004270219802856445	1.0853499755859375	-0.02496579933166504	0.01754490089416504	1.0688299560546874	-0.026269800186157228	0.03143040084838867	1.0414200439453125	-0.06628140258789063	0.018286800384521483	1.0431400146484375	-0.03324089813232422	0.016863700866699218	1.08243994140625	-0.028242900848388673	0.031099199295043945	1.0754599609375	-0.03507419967651367	0.04236280059814453	1.060510009765625	-0.06743129730224609	0.035278900146484375	1.059260009765625	-0.07901799774169922	-0.010361300468444825	1.11977001953125
1	0.03333333333333333	-0.010917799949645996	-0.06266180038452149	1.0179000244140626	-0.018014299392700196	-0.04660179901123047	1.0381300048828126	-0.02968670082092285	-0.039204498291015626	1.0659100341796874	-0.04246720123291016	-0.0179414005279541	1.0939200439453125	-0.00808448028564453	-0.006286900043487548	1.061699951171875	-0.006294020175933838	-0.00524822998046875	1.0416400146484375	-0.014645500183105469	-0.008027739524841308	1.0195800170898437	-0.04776219940185547	-0.024086000442504883	1.031719970703125	-0.023628700256347657	-0.0029774699211120603	1.0770400390625	-0.014573399543762206	0.007279829978942871	1.059199951171875	-0.017966800689697266	0.012578499794006348	1.029989990234375	-0.056503501892089844	-0.001926370024681091	1.030969970703125	-0.034838600158691405	0.0043970999717712405	1.0833699951171876	-0.02428739929199219	0.017665300369262695	1.0687900390625	-0.026876399993896485	0.029371700286865234	1.043239990234375	-0.06424960327148438	0.018121299743652345	1.0423199462890624	-0.03630739974975586	0.016423299789428712	1.0844100341796874	-0.029515499114990233	0.030954900741577147	1.0743199462890625	-0.036132701873779295	0.04240719985961914	1.0604100341796876	-0.06727570343017578	0.034837600708007815	1.05952001953125	-0.07628260040283204	-0.00952672004699707	1.1170999755859374
2	0.06666666666666667	-0.010895000457763673	-0.06240610122680664	1.0177999877929687	-0.018075199127197267	-0.04644329833984375	1.038050048828125	-0.029813100814819336	-0.039079498291015625	1.0658800048828125	-0.04236360168457031	-0.017644500732421874	1.093780029296875	-0.008265689849853515	-0.006230000019073486	1.06152001953125	-0.006540669918060303	-0.0052012200355529776	1.0413699951171875	-0.014866900444030762	-0.007988500118255614	1.0194299926757813	-0.047855201721191405	-0.024094900131225585	1.031550048828125	-0.023697900772094726	-0.003088469982147217	1.07693994140625	-0.014742500305175781	0.0073103799819946285	1.059010009765625	-0.018219699859619142	0.012620400428771973	1.029800048828125	-0.05681650161743164	-0.001868170022964477	1.0311400146484375	-0.0352401008605957	0.004371479988098143	1.083719970703125	-0.024641300201416017	0.01767620086669922	1.068719970703125	-0.0271156005859375	0.029401199340820312	1.043219970703125	-0.06442669677734375	0.01812649917602539	1.04225	-0.037061599731445315	0.016392999649047852	1.08431005859375	-0.02965369987487793	0.030912399291992188	1.0743599853515624	-0.036392101287841795	0.042439701080322266	1.06031005859375	-0.06752429962158203	0.03485260009765625	1.059489990234375	-0.07636530303955077	-0.009511549949645997	1.11675
3	0.1	-0.011061599731445312	-0.06227119827270508	1.0176699829101563	-0.018222900390625	-0.046364398956298826	1.037949951171875	-0.02993630027770996	-0.03895589828491211	1.06572998046875	-0.042590801239013674	-0.01753019905090332	1.09343994140625	-0.008336159706115722	-0.006196219921112059	1.06125	-0.006715519905090332	-0.005060480117797851	1.0413599853515625	-0.015039799690246582	-0.007892799854278565	1.0193200073242188	-0.04806829833984375	-0.02408679962158203	1.0315	-0.02336709976196289	-0.0029835000038146973	1.076300048828125	-0.014840999603271484	0.007444320201873779	1.0588399658203125	-0.01838640022277832	0.012680700302124023	1.029719970703125	-0.05683990097045898	-0.001727460026741027	1.0308199462890626	-0.034707599639892575	0.004518539905548096	1.083949951171875	-0.024844600677490235	0.017837900161743164	1.06877001953125	-0.027235000610351563	0.029460300445556642	1.0431199951171874	-0.06459390258789062	0.01826219940185547	1.042260009765625	-0.03780780029296875	0.016622800827026368	1.0844200439453124	-0.029662500381469725	0.03099799919128418	1.0741700439453126	-0.03654230117797851	0.042562301635742185	1.0603499755859376	-0.06761810302734375	0.034977298736572265	1.059550048828125	-0.07655560302734375	-0.009508230209350587	1.1173699951171876
4	0.13333333333333333	-0.011081199645996093	-0.062187198638916016	1.0175900268554687	-0.01828260040283203	-0.04628459930419922	1.0378900146484376	-0.03002739906311035	-0.038914699554443356	1.06575	-0.042602699279785154	-0.017516500473022462	1.0936600341796876	-0.008236940383911134	-0.006051620006561279	1.06102001953125	-0.0066835999488830565	-0.005056169986724853	1.0411800537109375	-0.01520989990234375	-0.007833209991455078	1.0191699829101561	-0.0481353988647461	-0.024027700424194335	1.031449951171875	-0.023124300003051757	-0.0029413900375366213	1.076199951171875	-0.014817299842834473	0.007493150234222412	1.0585899658203124	-0.018559499740600584	0.012766400337219238	1.029550048828125	-0.057161998748779294	-0.00174481999874115	1.0311400146484375	-0.035426498413085934	0.00441294002532959	1.0830999755859374	-0.02479560089111328	0.017864500045776367	1.068449951171875	-0.02740169906616211	0.029590700149536135	1.0431500244140626	-0.06471479797363282	0.018270599365234376	1.04227001953125	-0.03681150054931641	0.01649769973754883	1.0841400146484375	-0.030114500045776368	0.03121969985961914	1.0743199462890625	-0.036705501556396486	0.04261399841308594	1.060239990234375	-0.0677520980834961	0.03498680114746094	1.0593699951171875	-0.07675440216064452	-0.009512800216674805	1.117239990234375
5	0.16666666666666666	-0.01124549961090088	-0.06215200042724609	1.01747998046875	-0.018431400299072264	-0.04629669952392578	1.0378199462890625	-0.03018079948425293	-0.03891439819335937	1.0657099609375	-0.04273970031738281	-0.017555099487304687	1.09368994140625	-0.008254240036010742	-0.006313119888305664	1.06106005859375	-0.006813849925994873	-0.0050328302383422854	1.041010009765625	-0.015377900123596192	-0.007842860221862792	1.0190399780273438	-0.0482603988647461	-0.023973199844360353	1.031300048828125	-0.023310199737548828	-0.0029060800075531	1.0762099609375	-0.01498610019683838	0.007474510192871093	1.0585899658203124	-0.01865320014953613	0.012761899948120117	1.02947998046875	-0.05734429931640625	-0.001783439993858337	1.0311400146484375	-0.03491830062866211	0.00448006010055542	1.083780029296875	-0.02492729949951172	0.017928199768066408	1.068530029296875	-0.027594999313354494	0.02964240074157715	1.04275	-0.06484079742431641	0.018292299270629885	1.042199951171875	-0.03719409942626953	0.01664830017089844	1.084219970703125	-0.03001969909667969	0.031200000762939453	1.07393994140625	-0.03687960052490234	0.042664398193359376	1.0601500244140625	-0.06788819885253906	0.03500699996948242	1.0593499755859375	-0.07683049774169921	-0.00944834041595459	1.1173199462890624
